<svg id="svg2" xmlns="http://www.w3.org/2000/svg" viewBox="0 0 220 170">
    <g id="g10">
        <g id="g12">
            <path id="path18" d="M15.38,41.92l27.72,54.3c1-3.43,1.88-6.15,2.68-8.89Q58.25,45,70.65,2.7C71.28.53,72.18,0,74.34,0c12,.11,24.06.05,36.09.05h2.84c-2.15,7.33-4.21,14.39-6.29,21.44Q85.8,93.32,64.68,165.16c-.75,2.57-1.75,3.35-4.41,3.3-10.13-.18-20.27-.12-30.41,0a3.12,3.12,0,0,1-3.38-2.17q-12.91-28.89-26-57.71a4.64,4.64,0,0,1-.39-3.24C5.2,84.45,10.19,63.58,15.38,41.92" fill="#51abe4"></path>
            <path id="path20" d="M206.06.33c-1.9,6.51-3.77,13-5.69,19.53q-21.51,72.89-43,145.79c-.61,2.09-1.43,2.79-3.65,2.77-12.41-.12-24.82-.06-37.23-.06-.46,0-.93-.07-1.71-.12,1.82-6.2,3.6-12.25,5.38-18.3,4.05-13.78,8.06-27.58,12.21-41.33.71-2.34.3-2.93-2.13-2.91-10.7.1-21.41,0-32.11,0-3.75,0-3.78,0-2.79-3.74,3-11.23,6.05-22.45,9-33.7.52-2,1.38-2.74,3.47-2.71,11.36.18,22.72.15,34.08.39,2.49.05,3.39-.85,4-3.11,5.86-20.25,11.84-40.46,17.78-60.68.36-1.22.68-2.16,2.39-2.15C179.16.1,192.23.08,205.3.1a3.72,3.72,0,0,1,.76.23" fill="#6ac0eb"></path>
        </g>
    </g>
</svg>